<?xml version="1.0" encoding="utf-8"?>
<!-- Generator: Adobe Illustrator 19.2.0, SVG Export Plug-In . SVG Version: 6.00 Build 0)  -->
<svg version="1.1" id="Layer_1" xmlns="http://www.w3.org/2000/svg" xmlns:xlink="http://www.w3.org/1999/xlink" x="0px" y="0px"
	 viewBox="0 0 135.1 121.8" style="enable-background:new 0 0 135.1 121.8;" xml:space="preserve">
<style type="text/css">
	.st0{fill:#20B3C9;}
	.st1{opacity:0.5;}
	.st2{fill:#347099;}
	.st3{fill:#E94041;}
	.st4{fill:#FFFFFF;}
	.st5{fill:#545554;}
</style>
<g>
	<g>
		<path class="st0" d="M126.6,121.8H8.8c-1.1,0-2-0.9-2-2V2c0-1.1,0.9-2,2-2h117.8c1.1,0,2,0.9,2,2v117.8
			C128.6,120.9,127.7,121.8,126.6,121.8z"/>
	</g>
	<g class="st1">
		<path class="st2" d="M115.4,108.6H20V13.2h95.4V108.6z M22.2,106.4h90.9V15.5H22.2V106.4z"/>
	</g>
	<g>
		<g>
			<g>
				<circle class="st3" cx="22.3" cy="50.4" r="22.3"/>
			</g>
		</g>
		<g>
			<g>
				<circle class="st3" cx="112.5" cy="50.4" r="22.6"/>
			</g>
		</g>
		<g>
			<g>
				<circle class="st4" cx="22.3" cy="50.4" r="13.9"/>
			</g>
		</g>
		<g>
			<g>
				<circle class="st4" cx="112.5" cy="50.4" r="13.9"/>
			</g>
		</g>
		<g>
			<g>
				<circle class="st5" cx="112.5" cy="50.4" r="7.2"/>
			</g>
		</g>
		<g>
			<g>
				<g>
					<circle class="st5" cx="22.3" cy="50.4" r="7.2"/>
				</g>
			</g>
		</g>
		<g>
			<g>
				<g>
					<circle class="st4" cx="25.9" cy="46.8" r="3.7"/>
				</g>
			</g>
		</g>
		<g>
			<g>
				<g>
					<circle class="st4" cx="116.1" cy="46.8" r="3.7"/>
				</g>
			</g>
		</g>
	</g>
	<g>
		<path class="st5" d="M67.7,85.9c-7.1,0-13.1-5.4-13.8-12.5c-0.1-1.2,0.8-2.3,2-2.5c1.3-0.1,2.3,0.8,2.5,2c0.5,4.8,4.5,8.5,9.3,8.5
			c4.8,0,8.8-3.7,9.4-8.5c0.1-1.2,1.2-2.1,2.5-2c1.2,0.1,2.1,1.2,2,2.5C80.8,80.5,74.8,85.9,67.7,85.9z"/>
	</g>
	<g class="st1">
		<g>
			<circle class="st2" cx="27.4" cy="21.3" r="2.5"/>
		</g>
		<g>
			<circle class="st2" cx="107.6" cy="21.3" r="2.5"/>
		</g>
		<g>
			<circle class="st2" cx="27.4" cy="101" r="2.5"/>
		</g>
		<g>
			<circle class="st2" cx="107.6" cy="101" r="2.5"/>
		</g>
	</g>
</g>
</svg>
