<?xml version="1.0" encoding="utf-8"?>
<!-- Generator: Adobe Illustrator 19.2.0, SVG Export Plug-In . SVG Version: 6.00 Build 0)  -->
<svg version="1.1" id="Layer_1" xmlns="http://www.w3.org/2000/svg" xmlns:xlink="http://www.w3.org/1999/xlink" x="0px" y="0px"
	 viewBox="0 0 300 306.8" style="enable-background:new 0 0 300 306.8;" xml:space="preserve">
<style type="text/css">
	.st0{fill:#E94041;}
	.st1{fill:#C1343B;}
	.st2{fill:#20B3C9;}
	.st3{fill:#FCBF16;}
	.st4{fill:#2A90B1;}
	.st5{opacity:0.5;}
	.st6{fill:#347099;}
	.st7{fill:#FFFFFF;}
	.st8{fill:#545554;}
</style>
<g>
	<g>
		<g>
			
				<rect x="64.1" y="121.8" transform="matrix(5.842499e-12 -1 1 5.842499e-12 -102.3022 252.6948)" class="st0" width="22.3" height="111.4"/>
		</g>
		<g>
			<g>
				<rect x="119.4" y="166.9" class="st1" width="2.2" height="20.8"/>
			</g>
			<g>
				<rect x="110.6" y="166.9" class="st1" width="2.2" height="20.8"/>
			</g>
			<g>
				<rect x="101.7" y="166.9" class="st1" width="2.2" height="20.8"/>
			</g>
			<g>
				<rect x="92.9" y="166.9" class="st1" width="2.2" height="20.8"/>
			</g>
			<g>
				<rect x="84" y="166.9" class="st1" width="2.2" height="20.8"/>
			</g>
			<g>
				<rect x="75.2" y="166.9" class="st1" width="2.2" height="20.8"/>
			</g>
			<g>
				<rect x="66.3" y="166.9" class="st1" width="2.2" height="20.8"/>
			</g>
			<g>
				<rect x="79.9" y="166.9" class="st1" width="2.2" height="20.8"/>
			</g>
			<g>
				<rect x="71.1" y="166.9" class="st1" width="2.2" height="20.8"/>
			</g>
			<g>
				<rect x="62.2" y="166.9" class="st1" width="2.2" height="20.8"/>
			</g>
			<g>
				<rect x="53.3" y="166.9" class="st1" width="2.2" height="20.8"/>
			</g>
			<g>
				<rect x="44.5" y="166.9" class="st1" width="2.2" height="20.8"/>
			</g>
			<g>
				<rect x="35.6" y="166.9" class="st1" width="2.2" height="20.8"/>
			</g>
		</g>
	</g>
	<g>
		<g>
			
				<rect x="15.8" y="87.4" transform="matrix(-1 -4.476121e-11 4.476121e-11 -1 38.8669 199.552)" class="st0" width="7.3" height="24.7"/>
		</g>
		<g>
			<path class="st2" d="M8.4,112.8v67.1c0,6.1,5,11.1,11.1,11.1h0c6.1,0,11.1-5,11.1-11.1v-67.1c0-6.1-5-11.1-11.1-11.1h0
				C13.4,101.7,8.4,106.7,8.4,112.8z"/>
		</g>
		<g>
			<path class="st2" d="M19.4,91.9c-10,0-18.4-7.6-19.4-17.6l0-0.5v-5.5h9v5.3c0.7,5.3,5.1,9.3,10.5,9.3c5.3,0,9.8-4,10.5-9.3v-5.3
				h9l0,6C37.8,84.3,29.5,91.9,19.4,91.9z"/>
		</g>
		<g>
			<path class="st3" d="M15.8,121.1v50.5c0,2,1.7,3.7,3.7,3.7h0c2,0,3.7-1.7,3.7-3.7v-50.5c0-2-1.7-3.7-3.7-3.7h0
				C17.5,117.4,15.8,119.1,15.8,121.1z"/>
		</g>
		<g>
			<path class="st4" d="M19.4,83.6C13,83.6,7.7,78.7,7,72.3l0-0.2v-3.8h4.5v3.7c0.5,4.1,3.9,7.1,8,7.1s7.5-3.1,8-7.1v-3.7h4.5l0,4
				C31.2,78.7,25.9,83.6,19.4,83.6z"/>
		</g>
	</g>
	<g>
		<g>
			
				<rect x="213.7" y="121.8" transform="matrix(3.889872e-11 -1 1 3.889872e-11 47.3054 402.3024)" class="st0" width="22.3" height="111.4"/>
		</g>
		<g>
			<g>
				<rect x="178.3" y="166.9" class="st1" width="2.2" height="20.8"/>
			</g>
			<g>
				<rect x="187.2" y="166.9" class="st1" width="2.2" height="20.8"/>
			</g>
			<g>
				<rect x="196" y="166.9" class="st1" width="2.2" height="20.8"/>
			</g>
			<g>
				<rect x="204.9" y="166.9" class="st1" width="2.2" height="20.8"/>
			</g>
			<g>
				<rect x="213.7" y="166.9" class="st1" width="2.2" height="20.8"/>
			</g>
			<g>
				<rect x="222.6" y="166.9" class="st1" width="2.2" height="20.8"/>
			</g>
			<g>
				<rect x="231.4" y="166.9" class="st1" width="2.2" height="20.8"/>
			</g>
			<g>
				<rect x="217.9" y="166.9" class="st1" width="2.2" height="20.8"/>
			</g>
			<g>
				<rect x="226.7" y="166.9" class="st1" width="2.2" height="20.8"/>
			</g>
			<g>
				<rect x="235.6" y="166.9" class="st1" width="2.2" height="20.8"/>
			</g>
			<g>
				<rect x="244.4" y="166.9" class="st1" width="2.2" height="20.8"/>
			</g>
			<g>
				<rect x="253.3" y="166.9" class="st1" width="2.2" height="20.8"/>
			</g>
			<g>
				<rect x="262.1" y="166.9" class="st1" width="2.2" height="20.8"/>
			</g>
		</g>
	</g>
	<g>
		<g>
			<rect x="276.9" y="87.4" class="st0" width="7.3" height="24.7"/>
		</g>
		<g>
			<path class="st2" d="M291.6,112.8v67.1c0,6.1-5,11.1-11.1,11.1h0c-6.1,0-11.1-5-11.1-11.1v-67.1c0-6.1,5-11.1,11.1-11.1h0
				C286.6,101.7,291.6,106.7,291.6,112.8z"/>
		</g>
		<g>
			<path class="st2" d="M280.6,91.9c-10,0-18.4-7.6-19.4-17.6l0-0.5v-5.5h9v5.3c0.7,5.3,5.1,9.3,10.5,9.3c5.3,0,9.8-4,10.5-9.3v-5.3
				h9l0,6C298.9,84.3,290.6,91.9,280.6,91.9z"/>
		</g>
		<g>
			<path class="st3" d="M284.2,121.1v50.5c0,2-1.7,3.7-3.7,3.7h0c-2,0-3.7-1.7-3.7-3.7v-50.5c0-2,1.7-3.7,3.7-3.7h0
				C282.5,117.4,284.2,119.1,284.2,121.1z"/>
		</g>
		<g>
			<path class="st4" d="M280.5,83.6c-6.4,0-11.8-4.9-12.5-11.3l0-0.2v-3.8h4.5v3.7c0.5,4.1,3.9,7.1,8,7.1c4.1,0,7.5-3.1,8-7.1v-3.7
				h4.5l0,4C292.3,78.7,286.9,83.6,280.5,83.6z"/>
		</g>
	</g>
	<g>
		<g>
			<rect x="139.7" y="92.1" class="st0" width="22.3" height="169.1"/>
		</g>
		<g>
			<g>
				<rect x="139.7" y="101" class="st1" width="22.3" height="2.2"/>
			</g>
			<g>
				<rect x="139.7" y="109.8" class="st1" width="22.3" height="2.2"/>
			</g>
			<g>
				<rect x="139.7" y="118.7" class="st1" width="22.3" height="2.2"/>
			</g>
			<g>
				<rect x="139.7" y="127.5" class="st1" width="22.3" height="2.2"/>
			</g>
			<g>
				<rect x="139.7" y="136.4" class="st1" width="22.3" height="2.2"/>
			</g>
			<g>
				<rect x="139.7" y="145.2" class="st1" width="22.3" height="2.2"/>
			</g>
			<g>
				<rect x="139.7" y="154.1" class="st1" width="22.3" height="2.2"/>
			</g>
			<g>
				<rect x="139.7" y="162.9" class="st1" width="22.3" height="2.2"/>
			</g>
			<g>
				<rect x="139.7" y="171.8" class="st1" width="22.3" height="2.2"/>
			</g>
			<g>
				<rect x="139.7" y="180.6" class="st1" width="22.3" height="2.2"/>
			</g>
			<g>
				<rect x="139.7" y="189.5" class="st1" width="22.3" height="2.2"/>
			</g>
			<g>
				<rect x="139.7" y="198.3" class="st1" width="22.3" height="2.2"/>
			</g>
			<g>
				<rect x="139.7" y="207.2" class="st1" width="22.3" height="2.2"/>
			</g>
			<g>
				<rect x="139.7" y="216" class="st1" width="22.3" height="2.2"/>
			</g>
			<g>
				<rect x="139.7" y="224.9" class="st1" width="22.3" height="2.2"/>
			</g>
			<g>
				<rect x="139.7" y="233.7" class="st1" width="22.3" height="2.2"/>
			</g>
			<g>
				<rect x="139.7" y="242.6" class="st1" width="22.3" height="2.2"/>
			</g>
			<g>
				<rect x="139.7" y="251.4" class="st1" width="22.3" height="2.2"/>
			</g>
		</g>
	</g>
	<g>
		<path class="st2" d="M208.3,122.6H90.4c-1.1,0-2-0.9-2-2V2.7c0-1.1,0.9-2,2-2h117.8c1.1,0,2,0.9,2,2v117.8
			C210.3,121.7,209.4,122.6,208.3,122.6z"/>
	</g>
	<g class="st5">
		<path class="st6" d="M197,109.4h-95.4V14H197V109.4z M103.9,107.1h90.9V16.2h-90.9V107.1z"/>
	</g>
	<g>
		<path class="st2" d="M238.2,210.7h-175c-1.1,0-2-0.9-2-2V146c0-1.1,0.9-2,2-2h175c1.1,0,2,0.9,2,2v62.8
			C240.2,209.8,239.3,210.7,238.2,210.7z"/>
	</g>
	<g>
		<g>
			<path class="st2" d="M251.5,306.7H53c-18.1,0-32.9-14.8-32.9-32.9v0c0-18.1,14.8-32.9,32.9-32.9h198.5
				c18.1,0,32.9,14.8,32.9,32.9v0C284.4,291.9,269.6,306.7,251.5,306.7z"/>
		</g>
		<g class="st5">
			<g>
				<path class="st6" d="M252,306.8h-2.5v-16.8l2.3,0v8.6l0.4,8.2L252,306.8z M251.9,298.5L251.9,298.5v-0.2V298.5z M242.9,306.8
					h-2.2v-16.8h2.2V306.8z M234,306.8h-2.2v-16.8h2.2V306.8z M225,306.8h-2.2v-16.8h2.2V306.8z M216.1,306.8h-2.2v-16.8h2.2V306.8z
					 M207.2,306.8H205v-16.8h2.2V306.8z M198.3,306.8h-2.2v-16.8h2.2V306.8z M189.4,306.8h-2.2v-16.8h2.2V306.8z M180.5,306.8h-2.2
					v-16.8h2.2V306.8z M171.6,306.8h-2.2v-16.8h2.2V306.8z M162.7,306.8h-2.2v-16.8h2.2V306.8z M153.8,306.8h-2.2v-16.8h2.2V306.8z
					 M144.9,306.8h-2.2v-16.8h2.2V306.8z M136,306.8h-2.2v-16.8h2.2V306.8z M127.1,306.8h-2.2v-16.8h2.2V306.8z M118.2,306.8h-2.2
					v-16.8h2.2V306.8z M109.2,306.8H107v-16.8h2.2V306.8z M100.3,306.8h-2.2v-16.8h2.2V306.8z M91.4,306.8h-2.2v-16.8h2.2V306.8z
					 M82.5,306.8h-2.2v-16.8h2.2V306.8z M73.6,306.8h-2.2v-16.8h2.2V306.8z M64.7,306.8h-2.2v-16.8h2.2V306.8z M55.8,306.8h-2.2
					v-16.8h2.2V306.8z M45,305.8c-1-0.2-1.9-0.5-2.9-0.8l5.5-15.9c0.5,0.2,0.9,0.3,1.4,0.4L45,305.8z M260.8,305.5l-4.6-16.2
					c0.5-0.1,0.9-0.3,1.4-0.5l6.1,15.7C262.7,304.9,261.7,305.2,260.8,305.5z M34.1,301c-0.8-0.6-1.6-1.2-2.4-1.8l10.7-13
					c0.4,0.3,0.8,0.6,1.2,0.9L34.1,301z M271.4,300.2l-10-13.5c0.4-0.3,0.7-0.6,1.1-0.9l11.2,12.5C273,299,272.2,299.6,271.4,300.2z
					 M25.7,292.6c-0.6-0.8-1.1-1.7-1.6-2.5l14.6-8.4c0.2,0.4,0.5,0.8,0.8,1.2L25.7,292.6z M279.5,291.6l-14.2-9.1
					c0.3-0.4,0.5-0.8,0.7-1.3L281,289C280.6,289.9,280.1,290.7,279.5,291.6z M20.7,281.8c-0.2-1-0.4-2-0.6-3l16.6-2.6
					c0.1,0.5,0.2,0.9,0.3,1.4L20.7,281.8z M284,280.5l-16.5-3.5c0.1-0.5,0.2-0.9,0.2-1.4l16.7,1.9
					C284.4,278.6,284.2,279.6,284,280.5z M36.7,271.9l-16.7-2c0.1-1,0.3-2,0.5-3l16.5,3.5C36.8,270.9,36.7,271.4,36.7,271.9z
					 M267.7,271.3c-0.1-0.5-0.2-0.9-0.3-1.4l16.3-4.2c0.2,1,0.4,1.9,0.6,2.9L267.7,271.3z M38.4,266.3l-14.9-7.8
					c0.5-0.9,1-1.7,1.5-2.6l14.1,9.1C38.9,265.5,38.6,265.9,38.4,266.3z M265.8,265.8c-0.3-0.4-0.5-0.9-0.8-1.3l13.8-9.7
					c0.6,0.8,1.1,1.6,1.6,2.5L265.8,265.8z M42,261.7l-11.2-12.6c0.7-0.7,1.5-1.3,2.3-1.9l10,13.5C42.8,261.1,42.4,261.4,42,261.7z
					 M262,261.3c-0.4-0.3-0.8-0.6-1.2-0.9l9.5-13.9c0.8,0.6,1.6,1.2,2.4,1.8L262,261.3z M47,258.7l-6-15.7c0.9-0.4,1.9-0.7,2.8-0.9
					l4.6,16.2C47.9,258.4,47.4,258.5,47,258.7z M256.9,258.5c-0.5-0.2-0.9-0.3-1.4-0.4l4-16.4c1,0.2,1.9,0.5,2.9,0.8L256.9,258.5z
					 M250.9,257.6h-2.2v-16.8h2.2V257.6z M242,257.6h-2.2v-16.8h2.2V257.6z M233.1,257.6h-2.2v-16.8h2.2V257.6z M224.1,257.6h-2.2
					v-16.8h2.2V257.6z M215.2,257.6H213v-16.8h2.2V257.6z M206.3,257.6h-2.2v-16.8h2.2V257.6z M197.4,257.6h-2.2v-16.8h2.2V257.6z
					 M188.5,257.6h-2.2v-16.8h2.2V257.6z M179.6,257.6h-2.2v-16.8h2.2V257.6z M170.7,257.6h-2.2v-16.8h2.2V257.6z M161.8,257.6h-2.2
					v-16.8h2.2V257.6z M152.9,257.6h-2.2v-16.8h2.2V257.6z M144,257.6h-2.2v-16.8h2.2V257.6z M135.1,257.6h-2.2v-16.8h2.2V257.6z
					 M126.2,257.6h-2.2v-16.8h2.2V257.6z M117.2,257.6H115v-16.8h2.2V257.6z M108.3,257.6h-2.2v-16.8h2.2V257.6z M99.4,257.6h-2.2
					v-16.8h2.2V257.6z M90.5,257.6h-2.2v-16.8h2.2V257.6z M81.6,257.6h-2.2v-16.8h2.2V257.6z M72.7,257.6h-2.2v-16.8h2.2V257.6z
					 M63.8,257.6h-2.2v-16.8h2.2V257.6z M54.9,257.6h-2.2l-0.1-16.8h2.2V257.6z"/>
			</g>
		</g>
		<g>
			<path class="st4" d="M251.1,295.1H53.8c-11.7,0-21.3-9.6-21.3-21.3v0c0-11.7,9.6-21.3,21.3-21.3h197.3c11.7,0,21.3,9.6,21.3,21.3
				v0C272.4,285.5,262.9,295.1,251.1,295.1z"/>
		</g>
		<g>
			<circle class="st2" cx="54.1" cy="273.7" r="10.7"/>
		</g>
		<g>
			<circle class="st2" cx="82.4" cy="273.7" r="10.7"/>
		</g>
		<g>
			<circle class="st2" cx="110.4" cy="273.7" r="10.7"/>
		</g>
		<g>
			<circle class="st2" cx="138.5" cy="273.7" r="10.7"/>
		</g>
		<g>
			<circle class="st2" cx="166.7" cy="273.7" r="10.7"/>
		</g>
		<g>
			<circle class="st2" cx="194.8" cy="273.7" r="10.7"/>
		</g>
		<g>
			<circle class="st2" cx="223" cy="273.7" r="10.7"/>
		</g>
		<g>
			<circle class="st2" cx="251.1" cy="273.7" r="10.7"/>
		</g>
		<g>
			<circle class="st3" cx="54.1" cy="273.7" r="4.4"/>
		</g>
		<g>
			<circle class="st3" cx="82.2" cy="273.7" r="4.4"/>
		</g>
		<g>
			<circle class="st3" cx="110.4" cy="273.7" r="4.4"/>
		</g>
		<g>
			<circle class="st3" cx="138.5" cy="273.7" r="4.4"/>
		</g>
		<g>
			<circle class="st3" cx="166.7" cy="273.7" r="4.4"/>
		</g>
		<g>
			<circle class="st3" cx="194.8" cy="273.7" r="4.4"/>
		</g>
		<g>
			<circle class="st3" cx="223" cy="273.7" r="4.4"/>
		</g>
		<g>
			<circle class="st3" cx="251.1" cy="273.7" r="4.4"/>
		</g>
	</g>
	<g>
		<g>
			<g>
				<circle class="st0" cx="103.9" cy="51.1" r="22.3"/>
			</g>
		</g>
		<g>
			<g>
				<circle class="st0" cx="194.1" cy="51.1" r="22.6"/>
			</g>
		</g>
		<g>
			<g>
				<circle class="st7" cx="103.9" cy="51.1" r="13.9"/>
			</g>
		</g>
		<g>
			<g>
				<circle class="st7" cx="194.1" cy="51.1" r="13.9"/>
			</g>
		</g>
		<g>
			<g>
				<circle class="st8" cx="194.1" cy="51.1" r="7.2"/>
			</g>
		</g>
		<g>
			<g>
				<g>
					<circle class="st8" cx="103.9" cy="51.1" r="7.2"/>
				</g>
			</g>
		</g>
		<g>
			<g>
				<g>
					<circle class="st7" cx="107.5" cy="47.5" r="3.7"/>
				</g>
			</g>
		</g>
		<g>
			<g>
				<g>
					<circle class="st7" cx="197.8" cy="47.5" r="3.7"/>
				</g>
			</g>
		</g>
	</g>
	<g>
		<path class="st8" d="M149.3,86.7c-7.1,0-13.1-5.4-13.8-12.5c-0.1-1.2,0.8-2.3,2-2.5c1.3-0.1,2.3,0.8,2.5,2
			c0.5,4.8,4.5,8.5,9.3,8.5c4.8,0,8.8-3.7,9.4-8.5c0.1-1.2,1.2-2.1,2.5-2c1.2,0.1,2.1,1.2,2,2.5C162.4,81.3,156.5,86.7,149.3,86.7z"
			/>
	</g>
	<g class="st5">
		<path class="st6" d="M222.5,199.2H78.9c-3.1,0-5.6-2.5-5.6-5.6v-32.5c0-3.1,2.5-5.6,5.6-5.6h143.6c3.1,0,5.6,2.5,5.6,5.6v32.5
			C228.1,196.7,225.6,199.2,222.5,199.2z M78.9,157.7c-1.9,0-3.4,1.5-3.4,3.4v32.5c0,1.9,1.5,3.4,3.4,3.4h143.6
			c1.9,0,3.4-1.5,3.4-3.4v-32.5c0-1.9-1.5-3.4-3.4-3.4H78.9z"/>
	</g>
	<g class="st5">
		<g>
			<circle class="st6" cx="109" cy="22" r="2.5"/>
		</g>
		<g>
			<circle class="st6" cx="189.3" cy="22" r="2.5"/>
		</g>
		<g>
			<circle class="st6" cx="109" cy="101.8" r="2.5"/>
		</g>
		<g>
			<circle class="st6" cx="189.3" cy="101.8" r="2.5"/>
		</g>
	</g>
	<g class="st5">
		<g>
			<g>
				<circle class="st6" cx="82.6" cy="164.9" r="2.5"/>
			</g>
			<g>
				<circle class="st6" cx="219.6" cy="164.9" r="2.5"/>
			</g>
		</g>
		<g>
			<g>
				<circle class="st6" cx="82.6" cy="190.4" r="2.5"/>
			</g>
			<g>
				<circle class="st6" cx="219.6" cy="190.4" r="2.5"/>
			</g>
		</g>
	</g>
	<g>
		<g>
			<g>
				<circle class="st3" cx="115.9" cy="177.3" r="8.3"/>
			</g>
			<g>
				<circle class="st3" cx="149.3" cy="177.3" r="8.3"/>
			</g>
			<g>
				<circle class="st3" cx="182.8" cy="177.3" r="8.3"/>
			</g>
		</g>
	</g>
</g>
</svg>
